<?xml version="1.0" standalone="no"?>
<!DOCTYPE svg PUBLIC "-//W3C//DTD SVG 1.1//EN" "http://www.w3.org/Graphics/SVG/1.1/DTD/svg11.dtd" >
<!--
2013-9-30: Created.
-->
<svg>
<metadata>
Created by iconfont
</metadata>
<defs>

<font id="iconfont" horiz-adv-x="1024" >
  <font-face
    font-family="iconfont"
    font-weight="500"
    font-stretch="normal"
    units-per-em="1024"
    ascent="896"
    descent="-128"
  />
    <missing-glyph />
    
    <glyph glyph-name="sousuo" unicode="&#59068;" d="M702.550871 280.163428l-40.874943 0-15.328104 14.19735c51.094702 52.055586 81.750909 123.039267 81.750909 198.756763 0 170.362063-148.173714 307.59868-332.113003 307.59868S63.871703 663.479603 63.871703 493.116517 212.045417 185.517837 395.984706 185.517837c81.750909 0 158.39245 28.393677 214.59652 75.716472l15.328104-14.19735 0-37.858236 255.471462-236.614999 76.641541 70.984704L702.550871 280.163428 702.550871 280.163428zM395.984706 280.163428c-127.736243 0-229.924623 94.64559-229.924623 212.95309s102.18838 212.95309 229.924623 212.95309S625.909329 611.424017 625.909329 493.116517 523.720949 280.163428 395.984706 280.163428L395.984706 280.163428z"  horiz-adv-x="1024" />

    
    <glyph glyph-name="sousuo1" unicode="&#58923;" d="M688.565345 242.099153c0 0-11.672854-15.440667-27.297716-30.575366l179.917696-176.300308 29.860075 27.91784L688.565345 242.099153 688.565345 242.099153zM752.457514 433.213865c0-175.017082-134.816498-306.400389-301.919331-306.400389C276.296767 129.344113 149.950174 266.551054 149.950174 432.978505c0 160.758334 135.995347 296.318776 300.588009 296.318776C617.641015 729.29728 752.457514 591.974705 752.457514 433.213865L752.457514 433.213865zM449.439152 689.132512c-143.231145 0-259.32421-116.181069-259.32421-261.075087 0-144.898111 116.093065-261.882476 259.32421-261.882476 143.250588 0 262.8495 116.984365 262.8495 261.882476C712.288652 572.951443 592.68974 689.132512 449.439152 689.132512L449.439152 689.132512zM449.439152 689.132512"  horiz-adv-x="1024" />

    
    <glyph glyph-name="tencentqq1188698easyiconnet" unicode="&#58883;" d="M989.221 212.119c-22.108 124.734-114.977 206.446-114.977 206.446 13.272 113.237-35.38 133.332-35.38 133.332-10.235 350.354-320.501 344.247-327.052 344.077-6.516 0.171-316.851 6.278-327.018-344.077 0 0-48.652-20.095-35.38-133.332 0 0-92.868-81.712-114.977-206.446 0 0-11.805-210.745 106.14-25.793 0 0 26.509-70.248 75.161-133.332 0 0-86.966-28.693-79.597-103.24 0 0-2.968-83.111 185.703-77.413 0 0 132.65 10.031 172.465 64.517h35.039c39.815-54.486 172.465-64.517 172.465-64.517 188.603-5.698 185.703 77.413 185.703 77.413 7.335 74.547-79.597 103.24-79.597 103.24 48.652 63.084 75.161 133.332 75.161 133.332 117.877-184.952 106.14 25.793 106.14 25.793z"  horiz-adv-x="1024" />

    
    <glyph glyph-name="lianjie" unicode="&#58990;" d="M317.135 451.601l-67.058 66.958c-21.093 21.143-21.192 55.318-0.224 76.56l57.034 57.655c20.943 21.242 55.019 21.342 76.261 0.249l67.058-66.908c14.923-14.924 22.41-36.514 16.316-55.368l60.193-59.198c41.936 42.334 41.785 110.983-0.397 153.069L420.905 729.831c-42.11 42.135-110.386 41.836-152.422-0.498l-94.965-96.16c-41.986-42.383-41.836-110.934 0.472-153.118L279.253 374.99c42.21-42.182 110.437-41.984 152.397 0.447l-58.974 59.25C354.619 429.713 331.313 437.473 317.135 451.601zM852.453 305.148 750.821 406.63c-42.93 42.881-112.525 42.682-155.258-0.497l60.393-61.19c19.152 6.469 41.09-1.291 56.313-16.463l62.681-62.582c21.489-21.342 21.64-56.463 0.298-78.051l-58.203-58.602c-21.342-21.641-56.063-21.74-77.555-0.299l-62.629 62.58c-14.526 14.525-22.484 38.305-17.511 56.762l-60.591 59.994c-42.633-43.182-42.434-112.975 0.498-156.006l101.63-101.48c43.031-42.932 112.576-42.682 155.258 0.396l96.758 97.9C895.632 192.322 895.435 262.166 852.453 305.148zM399.564 505.924c-14.376-14.725-14.277-38.503 0.199-53.229l173.613-176.699c14.526-14.625 37.809-14.525 52.035 0.199 14.328 14.824 14.178 38.604-0.248 53.229L451.524 506.123C437.098 520.698 413.866 520.599 399.564 505.924z"  horiz-adv-x="1024" />

    
    <glyph glyph-name="weixin" unicode="&#58899;" d="M670.083411 525.074016c10.257621 0 20.401656-0.729617 30.430056-1.855254-27.334555 125.06132-163.500794 218.041992-318.978868 218.041992-173.758416 0-316.110541-116.339682-316.110541-264.027325 0-85.266989 47.338145-155.286716 126.480646-209.598692l-31.638581-93.374644 110.491487 54.42761c39.542598-7.712659 71.290673-15.592117 110.718661-15.592117 9.91686 0 19.771299 0.506537 29.512151 1.236154-6.186909 20.771069-9.740852 42.493813-9.740852 65.064878C401.306922 414.985712 519.934716 525.074016 670.083411 525.074016L670.083411 525.074016zM500.108159 609.221508c23.784706 0 39.542598-15.369036 39.542598-38.724976 0-23.24747-15.757892-38.835494-39.542598-38.835494-23.668049 0-47.452755 15.588023-47.452755 38.835494C452.655404 593.852472 476.44011 609.221508 500.108159 609.221508L500.108159 609.221508zM278.896988 531.604756c-23.668049 0-47.622624 15.588023-47.622624 38.835494 0 23.355941 23.898293 38.71986 47.622624 38.71986 23.671119 0 39.485293-15.364943 39.485293-38.71986C318.324976 547.192779 302.568107 531.604756 278.896988 531.604756L278.896988 531.604756zM278.896988 531.604756M958.574918 283.054937c0 124.107599-126.480646 225.302349-268.49201 225.302349-150.375869 0-268.890077-101.19475-268.890077-225.302349 0-124.331703 118.457926-225.302349 268.890077-225.302349 31.463596 0 63.21474 7.823176 94.847182 15.591093l86.706781-46.603411-23.780613 77.559447C911.293055 151.07095 958.574918 213.039303 958.574918 283.054937L958.574918 283.054937zM602.916663 321.946712c-15.757892 0-31.633465 15.368012-31.633465 31.071669 0 15.47546 15.876596 31.068599 31.633465 31.068599 23.899316 0 39.542598-15.592117 39.542598-31.068599C642.459261 337.314725 626.815979 321.946712 602.916663 321.946712L602.916663 321.946712zM776.793782 321.946712c-15.649422 0-31.406291 15.368012-31.406291 31.071669 0 15.47546 15.757892 31.068599 31.406291 31.068599 23.667026 0 39.542598-15.592117 39.542598-31.068599C816.33638 337.314725 800.459784 321.946712 776.793782 321.946712L776.793782 321.946712zM776.793782 321.946712"  horiz-adv-x="1024" />

    
    <glyph glyph-name="weibo" unicode="&#58960;" d="M727.647 393.322c-34.835 6.74-17.878 25.135-17.878 25.135s34.088 55.471-6.812 95.854c-50.556 49.953-173.686-6.295-173.686-6.295-46.936-14.342-34.519 6.597-27.851 42.193 0 42.021-14.544 113.056-139.771 71.179-125.056-42.321-232.406-190.227-232.406-190.227C54.572 332.907 64.43 256.927 64.43 256.927c18.624-167.794 199.267-213.853 339.785-224.775 147.791-11.366 347.346 50.256 407.76 177.063C872.562 336.199 762.625 386.438 727.647 393.322L727.647 393.322 727.647 393.322zM415.109 79.418c-146.727-6.725-265.43 65.79-265.43 162.406 0 96.759 118.703 174.232 265.43 180.957 146.869 6.74 265.747-53.086 265.747-149.543C680.855 176.768 561.978 85.986 415.109 79.418L415.109 79.418 415.109 79.418zM385.877 359.22C238.26 342.176 255.362 205.781 255.362 205.781s-1.523-43.228 39.519-65.2c86.313-46.216 175.355-18.252 220.163 39.031C560.024 236.737 533.668 376.12 385.877 359.22L385.877 359.22 385.877 359.22zM348.629 167.656c-27.564-3.146-49.81 12.56-49.81 35.296 0 22.576 19.688 46.361 47.252 49.19 31.645 3.003 52.223-14.945 52.223-37.824C398.439 191.728 376.049 170.789 348.629 167.656L348.629 167.656 348.629 167.656zM435.687 240.775c-9.37-6.869-20.867-5.979-25.723 2.4-5.145 8.076-3.19 20.938 6.207 27.663 10.894 8.077 22.247 5.692 27.248-2.385C448.277 260.377 444.798 247.961 435.687 240.775L435.687 240.775 435.687 240.775zM799.559 452.4c11.957 0 21.959 8.666 23.798 20.034 0.143 0.905 0.287 1.653 0.287 2.543 18.021 159.877-132.786 132.357-132.786 132.357-13.337 0-24.087-10.62-24.087-24.072 0-13.163 10.75-23.784 24.087-23.784 108.241 23.626 84.5-83.308 84.5-83.308C775.185 463.006 786.107 452.4 799.559 452.4L799.559 452.4 799.559 452.4zM781.997 731.454c-52.081 12.129-105.827 1.653-120.83-1.192-1.208-0.144-2.271-1.193-3.335-1.336-0.459-0.159-0.89-0.605-0.89-0.605-14.86-4.181-25.61-17.647-25.61-33.656 0-18.983 15.608-34.676 35.152-34.676 0 0 18.913 2.543 31.789 7.473 12.703 5.073 120.83 3.736 174.434-85.104 29.23-64.913 12.876-108.27 10.748-115.298 0 0-6.984-16.914-6.984-33.498 0-19.142 15.608-31.258 35.152-31.258 16.181 0 29.833 2.243 33.771 29.304l0.144 0C1003.367 621.086 875.264 710.071 781.997 731.454L781.997 731.454 781.997 731.454zM781.997 731.454"  horiz-adv-x="1024" />

    
    <glyph glyph-name="xiayiye-copy" unicode="&#58966;" d="M909.966 349.369c0.086 0.116 0.165 0.235 0.25 0.351 0.47 0.649 0.931 1.304 1.374 1.972 0.141 0.212 0.273 0.429 0.41 0.641 0.375 0.582 0.747 1.167 1.102 1.763 0.156 0.261 0.302 0.527 0.453 0.79 0.322 0.561 0.642 1.124 0.948 1.697 0.148 0.278 0.288 0.561 0.431 0.841 0.292 0.571 0.579 1.142 0.852 1.723 0.128 0.274 0.248 0.548 0.371 0.823 0.27 0.6 0.536 1.201 0.787 1.809 0.104 0.254 0.202 0.51 0.301 0.764 0.25 0.635 0.495 1.273 0.725 1.919 0.083 0.233 0.159 0.469 0.237 0.704 0.227 0.668 0.447 1.338 0.651 2.017 0.065 0.221 0.125 0.441 0.187 0.661 0.197 0.69 0.39 1.382 0.563 2.082 0.054 0.224 0.102 0.448 0.156 0.672 0.163 0.693 0.319 1.387 0.457 2.089 0.050 0.254 0.091 0.509 0.136 0.763 0.122 0.669 0.241 1.34 0.341 2.017 0.047 0.322 0.081 0.647 0.123 0.97 0.079 0.61 0.16 1.218 0.22 1.834 0.046 0.467 0.071 0.934 0.106 1.401 0.035 0.479 0.080 0.955 0.103 1.438 0.094 1.924 0.094 3.852 0 5.777-0.024 0.482-0.069 0.959-0.103 1.439-0.035 0.467-0.060 0.934-0.106 1.401-0.059 0.616-0.141 1.225-0.22 1.835-0.042 0.323-0.076 0.647-0.123 0.969-0.099 0.677-0.219 1.349-0.341 2.019-0.046 0.254-0.086 0.509-0.136 0.762-0.138 0.702-0.295 1.397-0.457 2.091-0.052 0.224-0.099 0.448-0.155 0.671-0.173 0.701-0.364 1.394-0.563 2.085-0.063 0.22-0.122 0.44-0.187 0.66-0.204 0.678-0.424 1.35-0.651 2.018-0.080 0.234-0.155 0.47-0.237 0.704-0.229 0.646-0.474 1.284-0.725 1.919-0.1 0.255-0.196 0.51-0.301 0.763-0.251 0.61-0.517 1.213-0.788 1.812-0.124 0.273-0.243 0.548-0.37 0.821-0.273 0.581-0.561 1.154-0.853 1.725-0.143 0.279-0.281 0.561-0.43 0.839-0.305 0.573-0.624 1.137-0.948 1.698-0.151 0.263-0.298 0.528-0.453 0.789-0.355 0.597-0.727 1.181-1.102 1.763-0.138 0.213-0.27 0.429-0.41 0.641-0.443 0.668-0.904 1.323-1.374 1.972-0.085 0.117-0.165 0.235-0.25 0.351-1.858 2.524-3.915 4.892-6.147 7.085l-233.526 233.524c-22.841 22.841-59.845 22.841-82.688 0s-22.841-59.845 0-82.688l134.081-134.081h-560.533c-32.32 0-58.476-26.182-58.475-58.475s26.154-58.475 58.475-58.475h560.533l-134.081-134.079c-22.841-22.841-22.841-59.845 0-82.688 11.421-11.421 26.381-17.131 41.344-17.131s29.922 5.711 41.344 17.131l233.527 233.527c2.232 2.192 4.287 4.56 6.145 7.084z"  horiz-adv-x="1024" />

    
    <glyph glyph-name="close_icon" unicode="&#58968;" d="M158.28 737.72c-195-195-195-512.39 0-707.44s512.39-195 707.44 0 195 512.39 0 707.44-512.4 195.040-707.44 0zM826.42 69.58c-173.42-173.36-455.42-173.36-628.84 0s-173.36 455.42 0 628.84 455.47 173.37 628.83 0 173.37-455.42 0.010-628.84zM669.21 580.51l-157.21-157.21-157.21 157.21c-5.015 4.946-11.906 8-19.51 8-15.348 0-27.79-12.442-27.79-27.79 0-7.604 3.054-14.496 8.003-19.513l157.207-157.207-157.21-157.21c-4.946-5.015-8-11.906-8-19.51 0-15.348 12.442-27.79 27.79-27.79 7.604 0 14.496 3.054 19.513 8.003l157.207 157.207 157.21-157.21c5.015-4.946 11.906-8 19.51-8 15.348 0 27.79 12.442 27.79 27.79 0 7.604-3.054 14.496-8.003 19.513l-157.207 157.207 157.21 157.21c4.946 5.015 8 11.906 8 19.51 0 15.348-12.442 27.79-27.79 27.79-7.604 0-14.496-3.054-19.513-8.003z"  horiz-adv-x="1024" />

    
    <glyph glyph-name="lianjie1" unicode="&#58919;" d="M893.134 2.683c-87.796-87.796-230.145-87.796-317.941 0l-95.381 95.381c-29.006 29.006-47.481 64.181-57.324 101.159 29.572 3.584 58.682 11.326 86.469 23.291 5.89-22.248 16.996-43.412 34.442-60.858l95.381-95.385c52.679-52.675 138.087-52.675 190.766 0 52.675 52.679 52.675 138.087 0 190.766l-95.385 95.381c-41.47 41.47-103.025 49.779-153.128 25.953l89.54-89.54c17.563-17.563 17.563-46.029 0-63.587-17.558-17.563-46.029-17.563-63.587 0L508.4 323.829c-87.288-57.828-206.031-48.318-282.941 28.588l-95.381 95.381c-87.796 87.796-87.796 230.145 0 317.941s230.145 87.796 317.941 0l95.381-95.381c29.006-29.006 47.486-64.181 57.324-101.159-29.572-3.584-58.682-11.326-86.469-23.291-5.89 22.248-16.996 43.412-34.442 60.858l-95.381 95.385c-52.679 52.675-138.087 52.675-190.766 0-52.675-52.679-52.675-138.087 0-190.766l95.381-95.381c41.474-41.47 103.029-49.779 153.132-25.953l-89.54 89.54c-17.563 17.558-17.563 46.029 0 63.587 17.558 17.563 46.025 17.563 63.587 0l98.587-98.587c87.287 57.827 206.036 48.318 282.941-28.588l95.381-95.381c87.794-87.794 87.794-230.144-0.001-317.939z"  horiz-adv-x="1024" />

    
    <glyph glyph-name="liulan" unicode="&#58891;" d="M716.803413 526.813867A142.813867 142.813867 0 1 1 860.163413 384a143.36 143.36 0 0 1-143.36 142.813867z m680.5504-41.915734C1274.13248 635.0848 1016.425813 896 716.803413 896 418.409813 896 159.269547 634.88 36.253013 486.4v-1.501867A165.137067 165.137067 0 0 1 0.003413 384a155.921067 155.921067 0 0 1 36.2496-100.898133V281.6c122.88-150.186667 382.293333-409.6 680.5504-409.6 299.8272 0 557.533867 261.12 680.5504 411.101867A161.860267 161.860267 0 0 1 1433.603413 384a157.969067 157.969067 0 0 1-36.2496 100.898133z m-680.5504-370.688A269.789867 269.789867 0 1 0 987.480747 384a270.7456 270.7456 0 0 0-270.677334-269.789867z"  horiz-adv-x="1433" />

    
    <glyph glyph-name="ins" unicode="&#59109;" d="M840.824252 383.844035a316.854253 316.854253 0 0 0-633.515361 0 303.752588 303.752588 0 0 0 5.794348 59.55302H0.000003v-411.398695a162.080785 162.080785 0 0 1 163.85128-159.988381h720.430577a161.791067 161.791067 0 0 1 163.529372 159.988381V443.397055h-212.781328a303.752588 303.752588 0 0 0 5.794348-59.55302zM884.28186 895.678092H163.851283A161.855449 161.855449 0 0 1 0.000003 735.689711v-173.186618h265.252366a320.813724 320.813724 0 0 0 517.306496 0h265.252367V735.689711A161.597922 161.597922 0 0 1 884.28186 895.678092z m80.155145-197.329734a28.971739 28.971739 0 0 0-29.293647-28.649831h-87.880942a28.971739 28.971739 0 0 0-28.971739 28.649831V783.975942a28.971739 28.971739 0 0 0 28.971739 28.649831h87.880942a28.971739 28.971739 0 0 0 29.293647-28.649831v-85.627584z m-245.615966-314.504323a194.979804 194.979804 0 1 1-194.754468-190.569661 192.726446 192.726446 0 0 1 194.754468 190.569661z"  horiz-adv-x="1047" />

    
    <glyph glyph-name="guanbi" unicode="&#58888;" d="M583.168 372.224L958.464 747.52c18.944 18.944 18.944 50.176 0 69.12l-2.048 2.048c-18.944 18.944-50.176 18.944-69.12 0L512 442.88 136.704 818.688c-18.944 18.944-50.176 18.944-69.12 0l-2.048-2.048c-19.456-18.944-19.456-50.176 0-69.12l375.296-375.296L65.536-3.072c-18.944-18.944-18.944-50.176 0-69.12l2.048-2.048c18.944-18.944 50.176-18.944 69.12 0L512 301.056 887.296-74.24c18.944-18.944 50.176-18.944 69.12 0l2.048 2.048c18.944 18.944 18.944 50.176 0 69.12L583.168 372.224z"  horiz-adv-x="1024" />

    
    <glyph glyph-name="wancheng" unicode="&#58880;" d="M524.4416 395.3664L922.624 793.6l36.1984-36.1984-398.2336-398.2336-36.1984-36.1984L307.2 540.16l36.1984 36.1984 181.0432-180.992zM153.6-25.6H102.4V793.6h512v-51.2H153.6v-716.8h716.8V486.4h51.2v-512H153.6z"  horiz-adv-x="1024" />

    
    <glyph glyph-name="xiayiye" unicode="&#58982;" d="M43.692093 890.471613l295.144549-222.918844V868.714734A27.285266 27.285266 0 0 0 382.528736 890.471613L1024 405.578544a27.285266 27.285266 0 0 0 0-43.513758L382.528736-122.471613a27.285266 27.285266 0 0 0-43.692094 21.756879V100.536398l-295.144549-222.918843a27.285266 27.285266 0 0 0-43.692093 21.667711V868.714734A27.285266 27.285266 0 0 0 43.692093 890.471613z"  horiz-adv-x="1034" />

    
    <glyph glyph-name="gangbi" unicode="&#59087;" d="M238.509317 31.006211l159.006211 267.130435c-25.440994 31.801242-31.801242 69.962733-12.720497 101.763975 25.440994 38.161491 76.322981 57.242236 114.484472 31.801242 38.161491-25.440994 57.242236-76.322981 31.801242-114.484472-19.080745-38.161491-57.242236-44.521739-95.403726-38.16149l-165.36646-279.850932 419.776398 209.888199 12.720496 311.652174-216.248447 133.565217-260.770186-178.086957 12.720497-445.217391z m534.260869 445.217391l-19.080745-311.652173-566.062112-292.571429-25.440994 636.024845 254.409938 171.726708c-31.801242 12.720497-38.161491 44.521739-25.440993 76.322981L448.397516 857.838509c19.080745 31.801242 50.881988 38.161491 82.683229 25.440994l349.813665-203.52795c31.801242-19.080745 31.801242-50.881988 25.440994-82.68323l-57.242236-101.763975c-25.440994-19.080745-50.881988-25.440994-76.322982-19.080746z"  horiz-adv-x="1024" />

    
    <glyph glyph-name="ins1" unicode="&#58983;" d="M992.5632-96.8192h-202.24v316.8256c0 75.52-1.536 172.7488-105.3184 172.7488-105.4208 0-121.4976-82.176-121.4976-167.168v-322.4064h-202.24V554.6496h194.2528V465.92h2.6112c27.136 51.2 93.1328 105.216 191.744 105.216 204.8 0 242.688-134.8096 242.688-310.272v-357.632zM132.9152 643.7888A117.2992 117.2992 0 0 0 15.616 761.344a117.4528 117.4528 0 1 0 117.3504-117.4528z m101.376-740.608H31.5904V554.6496h202.752V-96.768z"  horiz-adv-x="1024" />

    
    <glyph glyph-name="icon-shang" unicode="&#58881;" d="M512.133 496.483l-292.16-292.155c-12.27-12.28-32.186-12.28-44.457 0-12.28099999 12.27-12.281 32.186 0 44.457l314.388 314.388c12.27 12.28 32.186 12.28 44.457 0l314.387-314.388c6.14-6.136 9.211-14.183 9.211-22.228s-3.071-16.092-9.211-22.228c-12.27-12.28-32.186-12.28-44.457 0l-292.159 292.155z"  horiz-adv-x="1024" />

    
    <glyph glyph-name="zhineng" unicode="&#58882;" d="M808.779305 367.34548099999995c16.829603 61.158718 32.724399 118.922233 32.559553 165.533589-0.522182 162.879677-143.630633 300.487817-312.505159 300.487817l-4.014655-0.027645c-172.724335-2.226951-325.182908-143.135073-328.12453-302.344121-0.714672-4.922841-0.660406-10.601309-0.577471-17.80639 0.027645-1.89726 0.05529-3.849809 0.082935-5.650823-74.304382-87.723423-83.928904-120.517446-83.928904-139.271954 0-30.799494 17.242229-56.731438 47.299406-71.1416 9.735102-4.660726 24.914202-7.149791 60.114355-9.858992l7.314637-0.577471-0.164845-88.878366c0.467916-42.07452 35.44691-76.311197 78.593437-76.311197l74.413938-0.01331-0.220136-157.3251c0-9.335786 4.592126-18.080791 12.319389-23.333323a28.275617 28.275617 0 0 1 15.839506-4.86755 28.105652 28.105652 0 0 1 10.394483 1.993504l346.632282 137.800631c13.035084 5.169597 20.266786 19.126178 16.994448 32.752043-0.164846 0.605116-14.575008 62.16315-1.539923 140.619387 6.105428 36.725743 17.490009 78.153167 28.517254 118.220871z m-54.284352 14.945654c-11.412226-41.456093-23.209433-84.327195-29.781753-123.926984-9.872302-59.316749-5.967204-110.232518-2.007839-138.748748L435.994945 5.6436559999999645l0.220135 143.960324a28.197802 28.197802 0 0 1-8.222823 19.937095 28.159918 28.159918 0 0 1-19.937095 8.263779l-103.260883 0.01331c-11.604716 0-21.504663 9.446366-21.641864 20.253476l0.220135 114.810309c0.027645 14.808453-11.412226 27.114531-26.179724 28.145584l-33.192314 2.39282c-28.297119 2.185995-38.004575 3.890764-40.066681 4.49588-15.344969 7.342282-15.344969 16.788648-15.344969 19.978051 0.081911 0.949142 3.107492 24.158574 73.753532 106.986801l2.612955 3.066537c7.754907 9.211896 7.671973 18.672597 7.479482 35.846225-0.027645 3.038892-0.109556 5.953893-0.05529 8.084599 0.384981 1.828659 0.605116 3.698274 0.605117 5.596557 0.742317 128.76689 130.650839 247.715744 272.548034 249.545427l3.299983 0.027645c138.433391 0 255.746076-111.909642 256.186347-244.361496 0.138225-38.898427-15.454525-95.58891-30.524069-150.395444zM519.235798 727.328203c-71.554226 0-132.025917-48.78404-132.025918-106.53322 0-64.885661 72.626234-64.885661 136.727599-64.885661 64.101365 0 136.755243 0 136.755243 64.885661 0.001024 58.739277-63.46758 106.53322-141.456924 106.53322z m4.702705-115.099045c-62.204105 0-77.741565 5.004751-80.408786 8.565825 0 22.742541 33.769786 50.214408 75.706081 50.214408 48.72875 0 85.138113-26.509415 86.211144-50.791879-3.739229-2.983602-19.276689-7.988353-81.508439-7.988354z"  horiz-adv-x="1024" />

    
    <glyph glyph-name="jicheng" unicode="&#58901;" d="M211.66 602.35c-45.82 0-83.1 37.28-83.1 83.1s37.28 83.1 83.1 83.1 83.1-37.28 83.1-83.1-37.29-83.1-83.1-83.1z m0 127.84c-24.67 0-44.74-20.08-44.74-44.74s20.08-44.74 44.74-44.74 44.74 20.08 44.74 44.74-20.08 44.74-44.74 44.74zM812.51 602.35c-45.82 0-83.1 37.28-83.1 83.1s37.28 83.1 83.1 83.1c45.82 0 83.1-37.28 83.1-83.1s-37.28-83.1-83.1-83.1z m0 127.84c-24.67 0-44.74-20.08-44.74-44.74s20.08-44.74 44.74-44.74c24.67 0 44.74 20.08 44.74 44.74s-20.07 44.74-44.74 44.74zM211.66 1.49c-45.82 0-83.1 37.28-83.1 83.1s37.28 83.1 83.1 83.1 83.1-37.28 83.1-83.1-37.29-83.1-83.1-83.1z m0 127.85c-24.67 0-44.74-20.08-44.74-44.74s20.08-44.74 44.74-44.74 44.74 20.08 44.74 44.74-20.08 44.74-44.74 44.74zM812.51 1.49c-45.82 0-83.1 37.28-83.1 83.1s37.28 83.1 83.1 83.1c45.82 0 83.1-37.28 83.1-83.1s-37.28-83.1-83.1-83.1z m0 127.85c-24.67 0-44.74-20.08-44.74-44.74s20.08-44.74 44.74-44.74c24.67 0 44.74 20.08 44.74 44.74s-20.07 44.74-44.74 44.74zM754.98 65.42h-51.14c-7.07 0-12.78 5.72-12.78 12.78 0 7.07 5.72 12.78 12.78 12.78h51.14c7.07 0 12.78-5.72 12.78-12.78 0.01-7.07-5.71-12.78-12.78-12.78z m-102.27 0h-51.14c-7.07 0-12.78 5.72-12.78 12.78 0 7.07 5.72 12.78 12.78 12.78h51.14c7.07 0 12.78-5.72 12.78-12.78 0-7.07-5.72-12.78-12.78-12.78z m-102.27 0H499.3c-7.07 0-12.78 5.72-12.78 12.78 0 7.07 5.72 12.78 12.78 12.78h51.14c7.07 0 12.78-5.72 12.78-12.78 0-7.07-5.72-12.78-12.78-12.78z m-102.28 0h-51.14c-7.07 0-12.78 5.72-12.78 12.78 0 7.07 5.72 12.78 12.78 12.78h51.14c7.07 0 12.78-5.72 12.78-12.78 0.01-7.07-5.71-12.78-12.78-12.78z m-102.27 0h-51.14c-7.07 0-12.78 5.72-12.78 12.78 0 7.07 5.72 12.78 12.78 12.78h51.14c7.07 0 12.78-5.72 12.78-12.78 0-7.07-5.71-12.78-12.78-12.78zM205.26 142.12c-7.07 0-12.78 5.72-12.78 12.78v51.14c0 7.07 5.72 12.78 12.78 12.78s12.78-5.72 12.78-12.78v-51.14c0.01-7.06-5.71-12.78-12.78-12.78z m0 102.27c-7.07 0-12.78 5.72-12.78 12.78v51.14c0 7.07 5.72 12.78 12.78 12.78s12.78-5.72 12.78-12.78v-51.14c0.01-7.06-5.71-12.78-12.78-12.78z m0 102.28c-7.07 0-12.78 5.72-12.78 12.78v51.14c0 7.07 5.72 12.78 12.78 12.78s12.78-5.72 12.78-12.78v-51.14c0.01-7.07-5.71-12.78-12.78-12.78z m0 102.27c-7.07 0-12.78 5.72-12.78 12.78v51.14c0 7.07 5.72 12.78 12.78 12.78s12.78-5.72 12.78-12.78v-51.14c0.01-7.06-5.71-12.78-12.78-12.78z m0 102.27c-7.07 0-12.78 5.72-12.78 12.78v51.14c0 7.07 5.72 12.78 12.78 12.78s12.78-5.72 12.78-12.78V564c0.01-7.07-5.71-12.79-12.78-12.79zM754.98 679.05h-51.14c-7.07 0-12.78 5.72-12.78 12.78s5.72 12.78 12.78 12.78h51.14c7.07 0 12.78-5.72 12.78-12.78s-5.71-12.78-12.78-12.78zM652.71 679.05h-51.14c-7.07 0-12.78 5.72-12.78 12.78s5.72 12.78 12.78 12.78h51.14c7.07 0 12.78-5.72 12.78-12.78s-5.72-12.78-12.78-12.78zM550.44 679.05H499.3c-7.07 0-12.78 5.72-12.78 12.78s5.72 12.78 12.78 12.78h51.14c7.07 0 12.78-5.72 12.78-12.78s-5.72-12.78-12.78-12.78zM448.16 679.05h-51.14c-7.07 0-12.78 5.72-12.78 12.78s5.72 12.78 12.78 12.78h51.14c7.07 0 12.78-5.72 12.78-12.78s-5.71-12.78-12.78-12.78zM345.89 679.05h-51.14c-7.07 0-12.78 5.72-12.78 12.78s5.72 12.78 12.78 12.78h51.14c7.07 0 12.78-5.72 12.78-12.78s-5.71-12.78-12.78-12.78zM818.9 142.12c-7.07 0-12.78 5.72-12.78 12.78v51.14c0 7.07 5.72 12.78 12.78 12.78 7.07 0 12.78-5.72 12.78-12.78v-51.14c0.01-7.06-5.71-12.78-12.78-12.78z m0 102.27c-7.07 0-12.78 5.72-12.78 12.78v51.14c0 7.07 5.72 12.78 12.78 12.78 7.07 0 12.78-5.72 12.78-12.78v-51.14c0.01-7.06-5.71-12.78-12.78-12.78z m0 102.28c-7.07 0-12.78 5.72-12.78 12.78v51.14c0 7.07 5.72 12.78 12.78 12.78 7.07 0 12.78-5.72 12.78-12.78v-51.14c0.01-7.07-5.71-12.78-12.78-12.78z m0 102.27c-7.07 0-12.78 5.72-12.78 12.78v51.14c0 7.07 5.72 12.78 12.78 12.78 7.07 0 12.78-5.72 12.78-12.78v-51.14c0.01-7.06-5.71-12.78-12.78-12.78z m0 102.27c-7.07 0-12.78 5.72-12.78 12.78v51.14c0 7.07 5.72 12.78 12.78 12.78 7.07 0 12.78-5.72 12.78-12.78V564c0.01-7.07-5.71-12.79-12.78-12.79zM457.54 397.8H298.16c-16 0-28.98 12.97-28.98 28.98V586.16c0 16 12.97 28.98 28.98 28.98h159.38c16 0 28.98-12.97 28.98-28.98v-159.38c-0.01-16-12.98-28.98-28.98-28.98zM710.24 154.9H569.61c-24.67 0-44.74 20.08-44.74 44.74V570.39c0 24.67 20.08 44.74 44.74 44.74h140.63c24.67 0 44.74-20.08 44.74-44.74v-370.74c0-24.67-20.07-44.75-44.74-44.75zM569.61 576.78c-3.52 0-6.39-2.87-6.39-6.39v-370.74c0-3.52 2.87-6.39 6.39-6.39h140.63c3.52 0 6.39 2.87 6.39 6.39V570.39c0 3.52-2.87 6.39-6.39 6.39H569.61zM441.77 154.9H313.93c-24.67 0-44.74 20.08-44.74 44.74V327.49c0 24.67 20.08 44.74 44.74 44.74h127.84c24.67 0 44.74-20.08 44.74-44.74v-127.84c0-24.67-20.07-44.75-44.74-44.75zM313.93 333.88c-3.52 0-6.39-2.87-6.39-6.39v-127.84c0-3.52 2.87-6.39 6.39-6.39h127.84c3.52 0 6.39 2.87 6.39 6.39V327.49c0 3.52-2.87 6.39-6.39 6.39H313.93zM588.79 397.8h102.27v-25.57H588.79zM627.144 333.884v102.27h25.57v-102.27zM703.85 180.47h-89.49c-14.12 0-25.57 11.45-25.57 25.57v319.6c0 14.12 11.45 25.57 25.57 25.57h89.49c14.12 0 25.57-11.45 25.57-25.57v-319.6c-0.01-14.12-11.45-25.57-25.57-25.57z"  horiz-adv-x="1024" />

    
    <glyph glyph-name="chenggong" unicode="&#58902;" d="M395.75552-128c-4.61824 0-8.32512 1.83296-12.02176 4.57728-6.47168 6.41024-6.47168 17.408 0 23.81824l37.91872 38.47168c6.48192 6.42048 17.58208 6.42048 24.05376 0 6.47168-6.41024 6.47168-17.408 0-23.81824l-37.91872-38.47168c-3.70688-2.74432-7.40352-4.57728-12.032-4.57728zM897.536 680.96c-4.62848 0-8.33536 1.85344-12.032 5.57056-6.48192 6.49216-6.48192 17.63328 0 24.13568l48.128 47.33952c6.48192 6.5024 17.59232 6.5024 24.064 0 6.48192-6.49216 6.48192-17.63328 0-24.13568l-48.128-48.27136c-3.70688-3.70688-7.40352-4.63872-12.032-4.63872zM1092.096 455.68c-4.62848 0-8.33536 1.85344-12.032 5.57056-6.48192 6.49216-6.48192 17.63328 0 24.13568l48.128 47.33952c6.48192 6.5024 17.59232 6.5024 24.064 0 6.48192-6.49216 6.48192-17.63328 0-24.13568l-48.128-47.33952c-3.70688-4.63872-8.33536-5.57056-12.032-5.57056zM614.4 680.96c-214.784 0-389.12-176.29184-389.12-394.24S399.616-107.52 614.4-107.52s389.12 176.29184 389.12 394.24S829.184 680.96 614.4 680.96zM92.16 834.56c-50.5344 0-92.16-41.40032-92.16-91.66848C0 691.64032 41.6256 650.24 92.16 650.24s92.16 41.40032 92.16 92.65152C184.32 793.16992 142.6944 834.56 92.16 834.56zM414.72 896C389.3248 896 368.64 875.7248 368.64 849.92 368.64 825.0368 389.3248 803.84 414.72 803.84S460.8 824.1152 460.8 849.92 440.1152 896 414.72 896zM873.13408 200.21248C797.05088 25.78432 668.94848 56.80128 624.64-97.28c214.784 0 389.12 176.36352 389.12 394.40384C1013.76 412.42624 964.63872 517.08928 885.6576 588.8c-58.75712-136.63232 63.56992-214.15936-12.52352-388.58752zM573.44-97.28c-226.048 0-409.6 186.69568-409.6 415.20128 0 10.7008 8.704 19.456 19.32288 19.456 10.62912 0 19.32288-8.7552 19.32288-19.456C202.48576 110.80704 368.64-58.38848 573.44-58.38848c56.99584 0 110.1312 11.6736 157.46048 35.01056a19.3024 19.3024 0 0 0 26.09152-8.7552c4.82304-9.728 0.96256-21.39136-8.704-26.25536C694.19008-84.64384 636.23168-97.28 573.44-97.28z m237.64992 80.71168c-5.79584 0-11.60192 2.90816-15.4624 7.7824-6.7584 8.74496-4.83328 20.40832 3.86048 27.21792 11.60192 8.7552 24.15616 19.456 38.64576 34.03776 7.7312 7.7824 19.32288 7.7824 27.05408 0 7.72096-7.7824 7.72096-19.456 0-27.2384-16.42496-16.51712-29.952-28.19072-42.50624-37.91872-3.87072-2.90816-7.7312-3.8912-11.59168-3.8912z m92.73344 104.0384c-3.86048 0-6.7584 0.9728-10.62912 2.9184-8.69376 5.8368-11.59168 17.5104-5.79584 27.22816a375.64416 375.64416 0 0 1 56.99584 199.34208C944.39424 524.07296 778.24 693.26848 573.44 693.26848c-123.648 0-237.64992-62.23872-306.23744-165.30432-21.248-30.14656-36.7104-63.21152-48.30208-100.15744-2.89792-10.7008-13.5168-15.5648-24.14592-12.6464-10.62912 2.9184-15.4624 13.6192-12.56448 24.30976 12.56448 40.84736 29.952 77.79328 53.1456 110.85824C310.6816 664.09472 437.21728 732.16 573.44 732.16c226.048 0 409.6-186.69568 409.6-415.20128a417.42336 417.42336 0 0 0-62.79168-220.73344c-3.86048-5.8368-9.65632-8.7552-16.42496-8.7552zM808.8576 431.6672L545.9968 168.36608c-6.81984-6.7584-14.60224-9.64608-23.36768-9.64608-8.7552 0-16.54784 2.89792-23.35744 9.64608L347.41248 319.78496c-12.65664 12.544-12.65664 33.76128 0 46.29504 12.65664 12.544 34.06848 12.544 46.72512 0l128.512-128.27648L763.0848 476.99968c12.65664 12.53376 34.07872 12.53376 46.73536 0 12.65664-11.5712 12.65664-32.79872-0.9728-45.33248z"  horiz-adv-x="1157" />

    
    <glyph glyph-name="wangzhan" unicode="&#58995;" d="M782.336 510.976c-49.152 102.4-155.648 172.032-270.336 172.032S290.816 617.472 241.664 510.976L212.992 527.36c24.576 57.344 69.632 102.4 118.784 135.168 53.248 32.768 114.688 53.248 180.224 53.248s126.976-16.384 180.224-53.248c53.248-32.768 94.208-81.92 118.784-135.168l-28.672-16.384z m-270.336-458.752c-65.536 0-126.976 16.384-180.224 53.248-53.248 32.768-94.208 81.92-118.784 135.168l28.672 12.288c49.152-102.4 155.648-172.032 270.336-172.032s221.184 65.536 270.336 172.032l28.672-12.288c-24.576-57.344-69.632-102.4-118.784-135.168-53.248-32.768-114.688-53.248-180.224-53.248zM512 44.032c-69.632 0-135.168 20.48-184.32 53.248-53.248 32.768-94.208 81.92-122.88 139.264l-4.096 8.192 45.056 20.48 4.096-8.192c49.152-98.304 151.552-167.936 262.144-167.936s212.992 65.536 262.144 167.936l4.096 8.192 49.152-20.48-8.192-8.192c-24.576-53.248-65.536-102.4-122.88-139.264-57.344-36.864-122.88-53.248-184.32-53.248z m-286.72 192.512c24.576-49.152 65.536-94.208 110.592-122.88 49.152-32.768 106.496-53.248 176.128-53.248 57.344 0 118.784 16.384 176.128 53.248 49.152 32.768 90.112 73.728 110.592 122.88l-12.288 4.096c-53.248-102.4-159.744-167.936-274.432-167.936-114.688 0-221.184 65.536-274.432 167.936l-12.288-4.096zM245.76 494.592l-45.056 28.672 4.096 8.192c24.576 53.248 65.536 102.4 122.88 139.264 57.344 36.864 122.88 53.248 184.32 53.248 69.632 0 135.168-20.48 184.32-53.248 53.248-32.768 94.208-81.92 122.88-139.264l4.096-8.192-45.056-28.672-4.096 8.192c-49.152 98.304-151.552 167.936-262.144 167.936S299.008 609.28 249.856 506.88l-4.096-12.288zM512 691.2c114.688 0 221.184-65.536 274.432-167.936l12.288 8.192c-24.576 49.152-65.536 94.208-110.592 122.88-49.152 32.768-106.496 53.248-176.128 53.248-61.44 0-118.784-16.384-176.128-53.248-36.864-24.576-81.92-65.536-110.592-122.88l12.288-4.096c53.248 98.304 159.744 163.84 274.432 163.84zM782.336 3.072l-16.384 24.576c118.784 81.92 188.416 212.992 188.416 356.352 0 221.184-167.936 409.6-389.12 434.176l4.096 28.672c114.688-12.288 217.088-65.536 294.912-151.552C937.984 609.28 983.04 498.688 983.04 384c0-73.728-20.48-151.552-53.248-217.088-36.864-65.536-86.016-118.784-147.456-163.84z m-319.488-81.92c-114.688 12.288-217.088 65.536-294.912 151.552s-118.784 196.608-118.784 311.296c0 73.728 20.48 151.552 53.248 217.088s86.016 118.784 143.36 163.84l16.384-24.576c-114.688-81.92-188.416-212.992-188.416-356.352 0-221.184 167.936-409.6 389.12-434.176 4.096 0 0-28.672 0-28.672zM471.04-91.136h-8.192c-118.784 12.288-221.184 65.536-303.104 155.648-77.824 86.016-122.88 200.704-122.88 319.488 0 73.728 20.48 151.552 53.248 221.184 32.768 57.344 81.92 114.688 147.456 167.936l8.192 8.192 28.672-40.96-8.192-8.192C151.552 650.24 81.92 519.168 81.92 384c0-217.088 163.84-401.408 380.928-425.984h4.096l4.096-4.096c4.096-4.096 4.096-8.192 0-36.864v-8.192zM241.664 748.544C180.224 699.392 139.264 650.24 110.592 596.992c-32.768-69.632-49.152-143.36-49.152-212.992 0-114.688 40.96-221.184 114.688-303.104 73.728-81.92 172.032-135.168 278.528-147.456v8.192c-225.28 28.672-393.216 217.088-393.216 442.368 0 139.264 69.632 274.432 184.32 360.448l-4.096 4.096z m217.088-806.912c4.096 0 4.096 0 0 0 4.096 0 4.096 0 0 0z m319.488 45.056l-28.672 40.96 8.192 4.096c118.784 81.92 184.32 208.896 184.32 348.16 0 217.088-163.84 401.408-380.928 425.984h-12.288l8.192 49.152h8.192c118.784-12.288 221.184-65.536 303.104-155.648 77.824-90.112 122.88-204.8 122.88-319.488 0-73.728-20.48-151.552-53.248-221.184-36.864-65.536-86.016-118.784-151.552-167.936l-8.192-4.096z m0 36.864l4.096-8.192c57.344 45.056 102.4 94.208 135.168 155.648 32.768 65.536 53.248 143.36 53.248 212.992 0 110.592-40.96 217.088-114.688 303.104-73.728 81.92-172.032 131.072-278.528 147.456v-8.192c221.184-28.672 389.12-217.088 389.12-442.368-4.096-143.36-69.632-274.432-188.416-360.448zM241.664 400.384h540.672v-28.672H241.664v28.672z m270.336 135.168c-90.112 0-176.128 20.48-233.472 61.44l16.384 24.576c53.248-36.864 131.072-57.344 217.088-57.344s163.84 20.48 217.088 57.344l16.384-24.576c-57.344-40.96-143.36-61.44-233.472-61.44z m217.088-385.024c-53.248 36.864-131.072 57.344-217.088 57.344s-163.84-20.48-217.088-57.344l-16.384 24.576c57.344 36.864 143.36 61.44 233.472 61.44s176.128-20.48 233.472-61.44l-16.384-24.576zM733.184 134.144l-8.192 4.096c-53.248 36.864-126.976 57.344-212.992 57.344s-159.744-20.48-212.992-57.344l-8.192-4.096-28.672 40.96 8.192 4.096c61.44 40.96 151.552 61.44 237.568 61.44 94.208 0 184.32-24.576 237.568-61.44l8.192-4.096-20.48-40.96z m-221.184 86.016c86.016 0 159.744-20.48 212.992-53.248l4.096 8.192c-53.248 32.768-131.072 53.248-221.184 53.248-81.92 0-159.744-20.48-217.088-53.248l4.096-8.192c57.344 32.768 131.072 53.248 217.088 53.248z m278.528 143.36H229.376v49.152h561.152V363.52z m-540.672 20.48h520.192v8.192H249.856v-8.192zM512 527.36C417.792 527.36 327.68 547.84 274.432 588.8l-8.192 4.096 28.672 40.96 8.192-4.096c53.248-36.864 126.976-57.344 212.992-57.344s159.744 20.48 212.992 57.344l8.192 4.096 28.672-40.96-8.192-4.096c-61.44-40.96-151.552-61.44-245.76-61.44zM290.816 601.088c53.248-32.768 131.072-53.248 221.184-53.248 86.016 0 167.936 20.48 221.184 53.248l-8.192 8.192c-53.248-32.768-131.072-53.248-212.992-53.248S352.256 572.416 299.008 609.28l-8.192-8.192zM512 52.224c-20.48 0-36.864 12.288-53.248 28.672-12.288 16.384-24.576 40.96-36.864 73.728-20.48 61.44-32.768 143.36-32.768 229.376s12.288 167.936 32.768 229.376c8.192 28.672 20.48 53.248 36.864 73.728s32.768 28.672 53.248 28.672 36.864-12.288 53.248-28.672c12.288-16.384 24.576-40.96 36.864-73.728 20.48-61.44 32.768-143.36 32.768-229.376s-12.288-167.936-32.768-229.376c-8.192-28.672-20.48-53.248-36.864-73.728-16.384-16.384-32.768-28.672-53.248-28.672z m0 630.784c-20.48 0-40.96-28.672-61.44-81.92-20.48-57.344-28.672-135.168-28.672-217.088s12.288-159.744 28.672-217.088c16.384-53.248 40.96-81.92 61.44-81.92s40.96 28.672 61.44 81.92c20.48 57.344 28.672 135.168 28.672 217.088s-12.288 159.744-28.672 217.088c-20.48 53.248-40.96 81.92-61.44 81.92zM512 44.032c-24.576 0-45.056 16.384-61.44 32.768-12.288 20.48-24.576 45.056-40.96 77.824-20.48 65.536-32.768 147.456-32.768 233.472s12.288 167.936 32.768 233.472c8.192 28.672 20.48 57.344 36.864 77.824s36.864 32.768 61.44 32.768 45.056-16.384 61.44-32.768c12.288-16.384 28.672-45.056 40.96-77.824 20.48-65.536 32.768-147.456 32.768-233.472s-12.288-167.936-32.768-233.472c-8.192-28.672-20.48-57.344-36.864-77.824s-36.864-32.768-61.44-32.768z m0 663.552c-16.384 0-32.768-8.192-45.056-24.576-16.384-20.48-28.672-40.96-36.864-69.632-20.48-61.44-32.768-143.36-32.768-225.28s12.288-163.84 32.768-225.28c12.288-32.768 24.576-57.344 36.864-69.632 16.384-16.384 28.672-24.576 45.056-24.576 16.384 0 28.672 8.192 45.056 24.576 16.384 20.48 24.576 40.96 32.768 69.632 20.48 61.44 32.768 143.36 32.768 225.28s-12.288 163.84-32.768 225.28c-12.288 32.768-24.576 53.248-36.864 69.632-12.288 16.384-24.576 24.576-40.96 24.576z m0-630.784c-28.672 0-53.248 32.768-69.632 90.112-20.48 65.536-28.672 143.36-28.672 221.184 0 90.112 8.192 167.936 28.672 221.184 20.48 57.344 45.056 81.92 69.632 81.92 24.576 0 49.152-28.672 69.632-90.112 20.48-65.536 28.672-147.456 28.672-221.184 0-90.112-8.192-167.936-28.672-221.184-20.48-57.344-45.056-81.92-69.632-81.92z m0 593.92c-8.192 0-24.576-8.192-53.248-73.728-16.384-53.248-28.672-126.976-28.672-212.992 0-73.728 12.288-151.552 28.672-212.992 16.384-49.152 36.864-73.728 53.248-73.728 8.192 0 24.576 8.192 53.248 73.728 16.384 53.248 28.672 126.976 28.672 212.992 0 73.728-12.288 151.552-28.672 212.992-28.672 69.632-45.056 73.728-53.248 73.728zM278.528 769.024m-36.864 0a36.864 36.864 0 1 1 73.728 0 36.864 36.864 0 1 1-73.728 0ZM745.472-1.024m-36.864 0a36.864 36.864 0 1 1 73.728 0 36.864 36.864 0 1 1-73.728 0ZM512 764.928c-36.864 0-65.536 28.672-65.536 65.536S475.136 896 512 896c36.864 0 65.536-28.672 65.536-65.536s-28.672-65.536-65.536-65.536z m0 98.304c-16.384 0-32.768-16.384-32.768-32.768s16.384-32.768 32.768-32.768 32.768 16.384 32.768 32.768-16.384 32.768-32.768 32.768zM512-123.904c-36.864 0-65.536 28.672-65.536 65.536s28.672 65.536 65.536 65.536c36.864 0 65.536-28.672 65.536-65.536s-28.672-65.536-65.536-65.536z m0 98.304c-16.384 0-32.768-16.384-32.768-32.768s16.384-32.768 32.768-32.768 32.768 16.384 32.768 32.768-16.384 32.768-32.768 32.768zM184.32 318.464c-36.864 0-65.536 28.672-65.536 65.536 0 36.864 28.672 65.536 65.536 65.536s65.536-28.672 65.536-65.536c0-36.864-28.672-65.536-65.536-65.536z m0 98.304c-16.384 0-32.768-16.384-32.768-32.768s16.384-32.768 32.768-32.768 32.768 16.384 32.768 32.768-16.384 32.768-32.768 32.768zM839.68 318.464c-36.864 0-65.536 28.672-65.536 65.536 0 36.864 28.672 65.536 65.536 65.536s65.536-28.672 65.536-65.536c0-36.864-28.672-65.536-65.536-65.536z m0 98.304c-16.384 0-32.768-16.384-32.768-32.768s16.384-32.768 32.768-32.768 32.768 16.384 32.768 32.768-16.384 32.768-32.768 32.768z"  horiz-adv-x="1024" />

    
    <glyph glyph-name="guanbi1" unicode="&#59086;" d="M512 896c281.6 0 512-230.4 512-512s-230.4-512-512-512-512 230.4-512 512 230.4 512 512 512z m-6.4-467.2L345.6 588.8c-12.8 12.8-32 12.8-44.8 0-12.8-12.8-12.8-32 0-44.8L460.8 384l-160-160c-12.8-12.8-12.8-32 0-44.8 12.8-12.8 32-12.8 44.8 0l160 160 160-160c12.8-12.8 32-12.8 44.8 0 12.8 12.8 12.8 32 0 44.8L550.4 384 704 544c12.8 12.8 12.8 32 0 44.8-12.8 12.8-32 12.8-44.8 0L505.6 428.8z"  horiz-adv-x="1024" />

    


  </font>
</defs>
</svg>
